<?xml version="1.0" standalone="no"?>
<!DOCTYPE svg PUBLIC "-//W3C//DTD SVG 20010904//EN"
 "http://www.w3.org/TR/2001/REC-SVG-20010904/DTD/svg10.dtd">
<svg version="1.0" xmlns="http://www.w3.org/2000/svg"
 width="640.000000pt" height="640.000000pt" viewBox="0 0 640.000000 640.000000"
 preserveAspectRatio="xMidYMid meet">
<metadata>
Created by potrace 1.11, written by Peter Selinger 2001-2013
</metadata>
<g transform="translate(0.000000,640.000000) scale(0.100000,-0.100000)"
fill="#000000" stroke="none">
<path d="M3015 6014 c-182 -18 -253 -28 -340 -45 -1094 -216 -1943 -1023
-2214 -2106 -79 -313 -100 -694 -56 -1038 l17 -131 -64 -95 c-88 -132 -185
-324 -207 -411 -17 -67 -18 -80 -6 -132 21 -88 79 -148 163 -167 68 -16 120
-4 247 55 l95 45 42 -82 c129 -258 355 -560 567 -759 234 -219 523 -413 790
-529 53 -23 97 -42 98 -43 1 -1 -1 -15 -5 -31 -16 -60 16 -146 73 -197 39 -35
360 -117 605 -155 163 -25 607 -25 770 0 581 90 1046 284 1475 617 181 140
420 376 463 455 25 47 21 139 -10 210 -24 53 -25 62 -12 80 7 11 51 79 96 150
509 808 567 1836 152 2704 -36 74 -61 138 -57 142 5 4 82 49 173 99 196 109
318 189 344 227 11 14 25 49 31 77 10 42 9 61 -5 112 -42 154 -130 194 -430
194 -158 0 -320 -12 -502 -36 l-117 -16 -98 87 c-436 384 -952 623 -1514 700
-109 15 -481 27 -564 19z m827 -875 c34 -16 80 -81 180 -256 50 -87 92 -160
94 -162 2 -2 93 26 201 62 572 191 1160 293 1577 273 131 -6 156 -13 156 -47
0 -33 -124 -103 -987 -564 -307 -164 -543 -296 -543 -304 0 -7 18 -30 41 -50
l40 -36 -22 -42 -23 -41 41 -45 c56 -61 66 -83 64 -141 -1 -38 -7 -57 -26 -76
-14 -14 -25 -30 -25 -36 0 -5 18 -25 40 -44 53 -46 89 -145 90 -244 0 -57 -8
-95 -44 -201 -25 -72 -48 -153 -51 -181 -6 -45 -4 -53 20 -82 l27 -32 -47 -80
c-26 -44 -60 -91 -76 -104 l-29 -25 0 -135 c0 -75 2 -136 3 -136 2 0 66 29
143 65 151 71 188 78 242 45 17 -11 32 -22 32 -24 0 -3 7 -36 15 -75 19 -89
95 -527 95 -545 0 -9 -17 -17 -48 -21 -66 -9 -83 -21 -51 -34 13 -6 43 -15 67
-21 45 -12 46 -12 42 -82 -1 -27 2 -48 6 -48 5 0 24 18 44 41 l35 40 85 -182
c47 -100 88 -190 92 -200 6 -15 -20 -46 -125 -152 -462 -465 -1036 -747 -1692
-828 -130 -16 -512 -16 -640 0 -192 24 -526 99 -540 120 -2 4 18 76 46 160 27
83 57 193 68 244 10 51 22 92 27 92 5 0 39 -16 76 -35 52 -27 70 -32 79 -23 9
9 5 19 -19 42 l-31 31 30 15 c53 28 42 34 -82 50 l-46 6 -7 77 c-16 207 -18
377 -4 394 27 36 573 272 726 314 l62 17 0 50 0 50 -19 -24 c-10 -13 -37 -34
-60 -47 l-41 -23 0 36 0 36 -26 -20 c-29 -23 -113 -51 -151 -51 -23 0 -23 1
-8 30 21 40 19 43 -13 26 -23 -12 -126 -36 -153 -36 -5 0 1 21 12 46 11 26 18
48 16 50 -2 2 -21 -5 -42 -16 -26 -13 -59 -20 -97 -20 l-58 0 37 52 c29 39 33
50 18 43 -28 -13 -155 -19 -166 -8 -6 6 6 23 28 44 l38 34 -55 6 c-31 3 -66
12 -79 18 l-23 13 31 28 c57 52 42 63 -59 43 -173 -34 -309 2 -370 97 -42 65
-60 129 -60 209 0 80 25 139 81 197 l41 41 -22 72 c-11 39 -24 71 -28 71 -4 0
-257 -131 -562 -291 -305 -159 -682 -354 -838 -432 -268 -134 -284 -141 -297
-123 -17 22 -1 68 73 210 229 444 707 931 1342 1365 l105 72 0 257 c0 298 0
299 95 392 69 67 170 122 545 300 530 250 804 353 1155 434 119 28 150 30 182
15z"/>
</g>
</svg>
